<svg id="visual" viewBox="0 0 960 540" width="960" height="540" xmlns="http://www.w3.org/2000/svg" xmlns:xlink="http://www.w3.org/1999/xlink" version="1.1"><path d="M0 66L74 66L74 71L148 71L148 104L222 104L222 77L295 77L295 104L369 104L369 60L443 60L443 50L517 50L517 66L591 66L591 60L665 60L665 104L738 104L738 136L812 136L812 104L886 104L886 120L960 120L960 125L960 0L960 0L886 0L886 0L812 0L812 0L738 0L738 0L665 0L665 0L591 0L591 0L517 0L517 0L443 0L443 0L369 0L369 0L295 0L295 0L222 0L222 0L148 0L148 0L74 0L74 0L0 0Z" fill="#ddd6fe"></path><path d="M0 152L74 152L74 147L148 147L148 179L222 179L222 125L295 125L295 201L369 201L369 98L443 98L443 120L517 120L517 114L591 114L591 109L665 109L665 195L738 195L738 174L812 174L812 136L886 136L886 206L960 206L960 168L960 123L960 118L886 118L886 102L812 102L812 134L738 134L738 102L665 102L665 58L591 58L591 64L517 64L517 48L443 48L443 58L369 58L369 102L295 102L295 75L222 75L222 102L148 102L148 69L74 69L74 64L0 64Z" fill="#cbbfff"></path><path d="M0 293L74 293L74 266L148 266L148 309L222 309L222 303L295 303L295 374L369 374L369 298L443 298L443 212L517 212L517 314L591 314L591 293L665 293L665 330L738 330L738 341L812 341L812 309L886 309L886 325L960 325L960 260L960 166L960 204L886 204L886 134L812 134L812 172L738 172L738 193L665 193L665 107L591 107L591 112L517 112L517 118L443 118L443 96L369 96L369 199L295 199L295 123L222 123L222 177L148 177L148 145L74 145L74 150L0 150Z" fill="#baa7ff"></path><path d="M0 406L74 406L74 433L148 433L148 460L222 460L222 411L295 411L295 460L369 460L369 433L443 433L443 401L517 401L517 449L591 449L591 406L665 406L665 422L738 422L738 449L812 449L812 449L886 449L886 449L960 449L960 449L960 258L960 323L886 323L886 307L812 307L812 339L738 339L738 328L665 328L665 291L591 291L591 312L517 312L517 210L443 210L443 296L369 296L369 372L295 372L295 301L222 301L222 307L148 307L148 264L74 264L74 291L0 291Z" fill="#aa8ffd"></path><path d="M0 482L74 482L74 460L148 460L148 487L222 487L222 482L295 482L295 498L369 498L369 476L443 476L443 460L517 460L517 503L591 503L591 482L665 482L665 498L738 498L738 492L812 492L812 487L886 487L886 482L960 482L960 498L960 447L960 447L886 447L886 447L812 447L812 447L738 447L738 420L665 420L665 404L591 404L591 447L517 447L517 399L443 399L443 431L369 431L369 458L295 458L295 409L222 409L222 458L148 458L148 431L74 431L74 404L0 404Z" fill="#9a76fa"></path><path d="M0 541L74 541L74 541L148 541L148 541L222 541L222 541L295 541L295 541L369 541L369 541L443 541L443 541L517 541L517 541L591 541L591 541L665 541L665 541L738 541L738 541L812 541L812 541L886 541L886 541L960 541L960 541L960 496L960 480L886 480L886 485L812 485L812 490L738 490L738 496L665 496L665 480L591 480L591 501L517 501L517 458L443 458L443 474L369 474L369 496L295 496L295 480L222 480L222 485L148 485L148 458L74 458L74 480L0 480Z" fill="#8b5cf6"></path></svg>